<svg width="173" height="44" viewBox="0 0 173 44" fill="none" xmlns="http://www.w3.org/2000/svg">
<g clip-path="url(#clip0_235_2867)">
<path d="M65.9292 3.82812L64.5302 5.29591V43.3757H72.3723L73.7516 41.9286H65.9292V3.82812Z" fill="#B29BAA"/>
<path d="M94.283 18.6514L92.9037 20.8634V43.3764H100.844L102.224 41.9292H94.283V18.6514Z" fill="#B29BAA"/>
<path d="M76.6875 25.5356L82.5789 34.9418L83.8991 33.5774L76.6875 22.0625V25.5356Z" fill="#B29BAA"/>
<path d="M1.43838 3.82812L0.0591125 5.29591V43.3757H27.6839L29.0829 41.9286H1.43838V3.82812Z" fill="#B29BAA"/>
<path d="M4.35455 0.768555H31.7429V8.23153H12.2952V15.9633H29.4179V23.4262H12.2952V31.4267H31.9991V38.8897H4.35455V0.768555Z" fill="white"/>
<path d="M26.482 26.4658H12.2952V27.9336H25.1027L26.482 26.4658Z" fill="#B29BAA"/>
<path d="M68.8453 0.768555H77.4559L86.9926 16.8729L96.549 0.768555H105.16V38.869H97.2189V13.9786L86.8941 30.4137L76.6678 14.144V38.8484H68.8256L68.8453 0.768555Z" fill="white"/>
<path d="M28.5706 11.5605H12.2952V13.0077H27.1716L28.5706 11.5605Z" fill="#B29BAA"/>
<path d="M138.558 3.82812L137.159 5.29591V43.3757H145.158L146.538 41.9286H138.558V3.82812Z" fill="#B29BAA"/>
<path d="M152.804 29.7314H149.454V31.1992H151.326H151.424L159.207 43.3757H168.547L169.926 41.9286H160.587L152.804 29.7314Z" fill="#B29BAA"/>
<path d="M141.474 0.768555H158.064C162.675 0.768555 166.261 2.13298 168.645 4.63442C170.675 6.76375 171.759 9.76134 171.759 13.3378V13.4412C171.759 19.5811 168.586 23.4469 163.976 25.2455L172.842 38.8484H163.503L155.72 26.6512H155.621H149.454V38.8484H141.474V0.768555ZM157.552 19.271C161.434 19.271 163.68 17.1003 163.68 13.8753V13.7719C163.68 10.1748 161.296 8.3349 157.414 8.3349H149.474V19.271H157.552Z" fill="white"/>
<path d="M154.203 11.5605H149.474V13.0283H153.099C157.079 13.0283 159.286 14.8682 159.286 18.3V18.4033C159.286 18.6101 159.266 18.8375 159.247 19.0855V19.1269C159.66 19.0442 160.035 18.9408 160.39 18.8168C160.527 18.3206 160.587 17.7831 160.587 17.2456V17.1423C160.567 13.6072 158.261 11.5605 154.203 11.5605Z" fill="#B29BAA"/>
</g>
<defs>
<clipPath id="clip0_235_2867">
<rect width="173" height="43" fill="white" transform="translate(0 0.5)"/>
</clipPath>
</defs>
</svg>
